<?xml version="1.0" encoding="utf-8"?>
<!-- Generator: Adobe Illustrator 25.2.0, SVG Export Plug-In . SVG Version: 6.00 Build 0)  -->
<svg version="1.1" id="Layer_1" xmlns="http://www.w3.org/2000/svg" xmlns:xlink="http://www.w3.org/1999/xlink" x="0px" y="0px"
	 viewBox="0 0 700 640" style="enable-background:new 0 0 700 640;" xml:space="preserve">
<style type="text/css">
	.st0{fill:#B065A9;}
	.st1{fill:#7A6BB0;}
	.st2{fill:#108CA5;}
	.st3{fill:#7DA96A;}
	.st4{fill:#ED8C79;}
	.st5{fill:#EC6572;}
	.st6{fill:#D5AF34;}
</style>
<g>
	<g>
		<g>
			<path class="st0" d="M483.4,89.1c16.5,9.5,22.1,30.7,12.6,47.1s-30.7,22.1-47.1,12.6c-16.5-9.5-22.1-30.7-12.6-47.1
				C445.8,85.3,466.9,79.6,483.4,89.1 M522.8,20.8C468.6-10.5,399.3,8.1,368,62.3s-12.7,123.5,41.5,154.8s123.5,12.7,154.8-41.5
				S577.1,52.1,522.8,20.8L522.8,20.8z"/>
		</g>
	</g>
	<g>
		<g>
			<path class="st1" d="M616.5,319.6c0,19-15.5,34.5-34.5,34.5s-34.5-15.5-34.5-34.5c0-19,15.5-34.5,34.5-34.5
				S616.5,300.6,616.5,319.6 M695.3,319.6c0-62.6-50.8-113.4-113.4-113.4S468.6,257,468.6,319.6S519.4,433,582,433
				S695.3,382.2,695.3,319.6L695.3,319.6z"/>
		</g>
	</g>
	<g>
		<g>
			<path class="st2" d="M483.4,550.1c-16.5,9.5-37.6,3.8-47.1-12.6c-9.5-16.5-3.8-37.6,12.6-47.1c16.5-9.5,37.6-3.8,47.1,12.6
				C505.6,519.5,499.9,540.6,483.4,550.1 M522.8,618.4c54.2-31.3,72.8-100.6,41.5-154.8s-100.6-72.8-154.8-41.5
				c-54.2,31.3-72.8,100.6-41.5,154.8C399.3,631.1,468.6,649.7,522.8,618.4L522.8,618.4z"/>
		</g>
	</g>
	<g>
		<g>
			<path class="st3" d="M217.3,550.1c-16.5-9.5-22.1-30.7-12.6-47.1c9.5-16.5,30.7-22.1,47.1-12.6c16.5,9.5,22.1,30.7,12.6,47.1
				C254.9,554,233.8,559.6,217.3,550.1 M177.8,618.4c54.2,31.3,123.5,12.7,154.8-41.5c31.3-54.2,12.7-123.5-41.5-154.8
				s-123.5-12.7-154.8,41.5S123.6,587.1,177.8,618.4L177.8,618.4z"/>
		</g>
	</g>
	<g>
		<g>
			<path class="st4" d="M84.2,319.6c0-19,15.5-34.5,34.5-34.5s34.5,15.5,34.5,34.5c0,19-15.5,34.5-34.5,34.5S84.2,338.6,84.2,319.6
				 M5.3,319.6C5.3,382.2,56.1,433,118.7,433s113.4-50.8,113.4-113.4s-50.8-113.4-113.4-113.4S5.3,257,5.3,319.6L5.3,319.6z"/>
		</g>
	</g>
	<g>
		<g>
			<path class="st5" d="M217.3,89.1c16.5-9.5,37.6-3.8,47.1,12.6c9.5,16.5,3.8,37.6-12.6,47.1c-16.5,9.5-37.6,3.8-47.1-12.6
				C195.1,119.8,200.8,98.6,217.3,89.1 M177.8,20.8c-54.2,31.3-72.8,100.6-41.5,154.8s100.6,72.8,154.8,41.5S364,116.5,332.7,62.3
				S232.1-10.5,177.8,20.8L177.8,20.8z"/>
		</g>
	</g>
	<g>
		<path class="st6" d="M350.3,285.1c19,0,34.5,15.5,34.5,34.5c0,19-15.5,34.5-34.5,34.5s-34.5-15.5-34.5-34.5
			C315.8,300.6,331.3,285.1,350.3,285.1 M350.3,206.3C287.7,206.3,237,257,237,319.6S287.7,433,350.3,433s113.4-50.8,113.4-113.4
			S413,206.3,350.3,206.3L350.3,206.3z"/>
	</g>
</g>
</svg>
