<?xml version="1.0" encoding="utf-8"?>
<!-- Generator: Adobe Illustrator 26.5.0, SVG Export Plug-In . SVG Version: 6.00 Build 0)  -->
<svg version="1.1" id="Layer_1" xmlns="http://www.w3.org/2000/svg" xmlns:xlink="http://www.w3.org/1999/xlink" x="0px" y="0px"
	 viewBox="0 0 512 512" style="enable-background:new 0 0 512 512;" xml:space="preserve">
<style type="text/css">
	.st0{fill:#B065A9;}
	.st1{fill:#7A6BB0;}
	.st2{fill:#108CA5;}
	.st3{fill:#7DA96A;}
	.st4{fill:#ED8C79;}
	.st5{fill:#EC6572;}
	.st6{fill:#D5AF34;}
</style>
<g>
	<g>
		<g>
			<path class="st0" d="M354.8,85c12.2,7,16.4,22.8,9.3,34.9c-7,12.2-22.8,16.4-34.9,9.3c-12.2-7-16.4-22.8-9.3-34.9
				C326.9,82.1,342.5,77.9,354.8,85 M384,34.3c-40.2-23.2-91.6-9.4-114.9,30.8s-9.4,91.6,30.8,114.9s91.6,9.4,114.9-30.8
				C438,108.9,424.3,57.5,384,34.3L384,34.3z"/>
		</g>
	</g>
	<g>
		<g>
			<path class="st1" d="M453.5,256c0,14.1-11.5,25.6-25.6,25.6s-25.6-11.5-25.6-25.6s11.5-25.6,25.6-25.6S453.5,241.9,453.5,256
				 M512,256c0-46.5-37.7-84.1-84.1-84.1s-84.1,37.7-84.1,84.1s37.7,84.1,84.1,84.1S512,302.5,512,256L512,256z"/>
		</g>
	</g>
	<g>
		<g>
			<path class="st2" d="M354.8,427c-12.2,7-27.9,2.8-34.9-9.3c-7-12.2-2.8-27.9,9.3-34.9c12.2-7,27.9-2.8,34.9,9.3
				C371.2,404.3,367,420,354.8,427 M384,477.7c40.2-23.2,54-74.6,30.8-114.9c-23.2-40.2-74.6-54-114.9-30.8s-54,74.6-30.8,114.9
				C292.4,487.1,343.8,500.9,384,477.7L384,477.7z"/>
		</g>
	</g>
	<g>
		<g>
			<path class="st3" d="M157.3,427c-12.2-7-16.4-22.8-9.3-34.9c7-12.2,22.8-16.4,34.9-9.3c12.2,7,16.4,22.8,9.3,34.9
				C185.2,429.9,169.6,434.1,157.3,427 M128,477.7c40.2,23.2,91.6,9.4,114.9-30.8s9.4-91.6-30.8-114.9s-91.6-9.4-114.9,30.8
				S87.8,454.5,128,477.7L128,477.7z"/>
		</g>
	</g>
	<g>
		<g>
			<path class="st4" d="M58.5,256c0-14.1,11.5-25.6,25.6-25.6s25.6,11.5,25.6,25.6s-11.5,25.6-25.6,25.6S58.5,270.1,58.5,256 M0,256
				c0,46.5,37.7,84.1,84.1,84.1s84.1-37.7,84.1-84.1s-37.7-84.1-84.1-84.1S0,209.5,0,256L0,256z"/>
		</g>
	</g>
	<g>
		<g>
			<path class="st5" d="M157.3,85c12.2-7,27.9-2.8,34.9,9.3c7,12.2,2.8,27.9-9.3,34.9c-12.2,7-27.9,2.8-34.9-9.3
				C140.8,107.7,145.1,92,157.3,85 M128,34.3c-40.2,23.2-54,74.6-30.8,114.9s74.6,54,114.9,30.8s54.1-74.6,30.9-114.9
				S168.3,11.1,128,34.3L128,34.3z"/>
		</g>
	</g>
	<g>
		<path class="st6" d="M256,230.4c14.1,0,25.6,11.5,25.6,25.6s-11.5,25.6-25.6,25.6s-25.6-11.5-25.6-25.6S241.9,230.4,256,230.4
			 M256,171.9c-46.5,0-84.1,37.6-84.1,84.1s37.6,84.1,84.1,84.1s84.1-37.7,84.1-84.1S302.5,171.9,256,171.9L256,171.9z"/>
	</g>
</g>
</svg>
