<?xml version="1.0" encoding="utf-8"?>
<!-- Generator: Adobe Illustrator 26.5.0, SVG Export Plug-In . SVG Version: 6.00 Build 0)  -->
<svg version="1.2" baseProfile="tiny" id="Layer_1" xmlns="http://www.w3.org/2000/svg" xmlns:xlink="http://www.w3.org/1999/xlink"
	 x="0px" y="0px" viewBox="0 0 512 512" overflow="visible" xml:space="preserve">
<g>
	<g>
		<g>
			<path fill="#B065A9" d="M354.8,68.1c12.2,7.7,16.4,25,9.3,38.4c-7,13.4-22.8,18-34.9,10.3c-12.2-7.7-16.4-25-9.3-38.4
				C326.9,65,342.5,60.3,354.8,68.1 M384,12.4C343.8-13.1,292.4,2,269.1,46.2s-9.4,100.7,30.8,126.2s91.6,10.4,114.9-33.8
				C438,94.4,424.3,37.9,384,12.4L384,12.4z"/>
		</g>
	</g>
	<g>
		<g>
			<path fill="#7A6BB0" d="M453.5,256c0,15.5-11.5,28.1-25.6,28.1c-14.1,0-25.6-12.6-25.6-28.1s11.5-28.1,25.6-28.1
				C442,227.9,453.5,240.5,453.5,256 M512,256c0-51-37.7-92.5-84.1-92.5S343.8,205,343.8,256s37.7,92.5,84.1,92.5S512,307,512,256
				L512,256z"/>
		</g>
	</g>
	<g>
		<g>
			<path fill="#108CA5" d="M354.8,443.9c-12.2,7.7-27.9,3.1-34.9-10.3c-7-13.5-2.8-30.7,9.3-38.4c12.2-7.7,27.9-3.1,34.9,10.3
				C371.2,419,367,436.2,354.8,443.9 M384,499.6c40.2-25.5,54-82,30.8-126.2c-23.2-44.2-74.6-59.4-114.9-33.8
				c-40.2,25.5-54,82-30.8,126.2S343.8,525.1,384,499.6L384,499.6z"/>
		</g>
	</g>
	<g>
		<g>
			<path fill="#7DA96A" d="M157.3,443.9c-12.2-7.7-16.4-25-9.3-38.4c7-13.5,22.8-18,34.9-10.3c12.2,7.7,16.4,25,9.3,38.4
				C185.2,447.1,169.6,451.7,157.3,443.9 M128,499.6c40.2,25.5,91.6,10.4,114.9-33.8s9.4-100.7-30.8-126.2
				c-40.2-25.5-91.6-10.4-114.9,33.8S87.8,474.1,128,499.6L128,499.6z"/>
		</g>
	</g>
	<g>
		<g>
			<path fill="#ED8C79" d="M58.5,256c0-15.5,11.5-28.1,25.6-28.1s25.6,12.6,25.6,28.1s-11.5,28.1-25.6,28.1S58.5,271.5,58.5,256
				 M0,256c0,51,37.7,92.5,84.1,92.5s84.1-41.4,84.1-92.5s-37.7-92.5-84.1-92.5S0,205,0,256L0,256z"/>
		</g>
	</g>
	<g>
		<g>
			<path fill="#EC6572" d="M157.3,68.1c12.2-7.7,27.9-3.1,34.9,10.3c7,13.5,2.8,30.7-9.3,38.4c-12.2,7.7-27.9,3.1-34.9-10.3
				C140.8,93.1,145.1,75.8,157.3,68.1 M128,12.4c-40.2,25.5-54,82-30.8,126.2s74.6,59.4,114.9,33.8s54.1-82,30.9-126.2
				S168.3-13.1,128,12.4L128,12.4z"/>
		</g>
	</g>
	<g>
		<path fill="#D5AF34" d="M256,227.9c14.1,0,25.6,12.6,25.6,28.1s-11.5,28.1-25.6,28.1c-14.1,0-25.6-12.6-25.6-28.1
			S241.9,227.9,256,227.9 M256,163.6c-46.5,0-84.1,41.3-84.1,92.4s37.6,92.5,84.1,92.5s84.1-41.4,84.1-92.5S302.5,163.6,256,163.6
			L256,163.6z"/>
	</g>
</g>
</svg>
