<?xml version="1.0" encoding="utf-8"?>
<!-- Generator: Adobe Illustrator 26.5.0, SVG Export Plug-In . SVG Version: 6.00 Build 0)  -->
<svg version="1.2" baseProfile="tiny" id="katman_1"
	 xmlns="http://www.w3.org/2000/svg" xmlns:xlink="http://www.w3.org/1999/xlink" x="0px" y="0px" viewBox="0 0 512 512"
	 overflow="visible" xml:space="preserve">
<path fill="#8247E5" d="M255.9,0L255.9,0C397.3,0,512,114.6,512,256.1l0,0C512,397.5,397.3,512,256,512l0,0
	C114.6,512,0,397.4,0,256.1l0,0C-0.1,114.6,114.6,0,255.9,0z"/>
<path fill="#FFFFFF" d="M339.2,200.6c-6.1-3.5-13.9-3.5-20.8,0l-48.6,28.8l-33,18.3l-47.7,28.7c-6.1,3.5-13.9,3.5-20.8,0L131,253.7
	c-6.1-3.5-10.4-10.5-10.4-18.3v-43.6c0-7,3.5-13.9,10.4-18.3l37.3-21.8c6.1-3.5,13.9-3.5,20.8,0l37.3,22.7
	c6.1,3.5,10.4,10.5,10.4,18.3v28.8l33-19.2v-29.6c0-7-3.5-13.9-10.4-18.3l-69.4-41c-6.1-3.5-13.9-3.5-20.8,0l-71.1,41.9
	c-6.9,3.5-10.4,10.5-10.4,17.4v81.9c0,7,3.5,13.9,10.4,18.3l70.3,41c6.1,3.5,13.9,3.5,20.8,0l47.7-27.9l33-19.2l47.7-27.9
	c6.1-3.5,13.9-3.5,20.8,0l37.3,21.8c6.1,3.5,10.4,10.5,10.4,18.3v43.6c0,7-3.5,13.9-10.4,18.3l-36.4,21.8c-6.1,3.5-13.9,3.5-20.8,0
	l-37.4-21.8c-6.1-3.5-10.4-10.5-10.4-18.3v-27.9l-33,19.2v28.8c0,7,3.5,13.9,10.4,18.3l70.3,41c6.1,3.5,13.9,3.5,20.8,0l70.3-41
	c6.1-3.5,10.4-10.5,10.4-18.3v-82.8c0-7-3.5-13.9-10.4-18.3L339.2,200.6z"/>
</svg>
