<?xml version="1.0" encoding="utf-8"?>
<!-- Generator: Adobe Illustrator 26.5.0, SVG Export Plug-In . SVG Version: 6.00 Build 0)  -->
<svg version="1.2" baseProfile="tiny" id="Layer_1" xmlns="http://www.w3.org/2000/svg" xmlns:xlink="http://www.w3.org/1999/xlink"
	 x="0px" y="0px" viewBox="0 0 512 512" overflow="visible" xml:space="preserve">
<circle fill="#E84142" cx="256" cy="256" r="256"/>
<path fill="#FFFFFF" d="M345.5,262.6c8.8-15.2,23-15.2,31.8,0l54.7,96c8.8,15.2,1.6,27.5-16,27.5H305.7c-17.4,0-24.6-12.4-16-27.5
	L345.5,262.6z M239.6,77.7c8.8-15.2,22.8-15.2,31.6,0l12.2,22l28.8,50.5c7,14.4,7,31.3,0,45.7L215.7,363
	c-8.7,13.6-23.4,22.2-39.5,23.2H96c-17.6,0-24.8-12.2-16-27.5L239.6,77.7z"/>
</svg>
