<?xml version="1.0" encoding="utf-8"?>
<!-- Generator: Adobe Illustrator 26.5.0, SVG Export Plug-In . SVG Version: 6.00 Build 0)  -->
<svg version="1.2" baseProfile="tiny" id="Layer_1" xmlns="http://www.w3.org/2000/svg" xmlns:xlink="http://www.w3.org/1999/xlink"
	 x="0px" y="0px" viewBox="0 0 512 512" overflow="visible" xml:space="preserve">
<circle fill="#F0B90B" cx="256" cy="256" r="256"/>
<path fill="#FFFFFF" d="M156.6,256l-40.8,41.1L74.7,256l41.1-41.1L156.6,256z M256,156.6l70.3,70.3l41.1-41.1l-70.3-70L256,74.7
	l-41.1,41.1l-70,70l41.1,41.1L256,156.6z M396.2,214.9L355.5,256l41.1,41.1l40.8-41.1L396.2,214.9z M256,355.5l-70.3-70.3
	l-40.8,41.1l70.3,70.3l40.8,40.8l41.1-41.1l70.3-70.3l-41.1-40.8L256,355.5z M256,297.1l41.1-41.1L256,214.9L214.9,256L256,297.1z"
	/>
</svg>
