<?xml version="1.0" encoding="utf-8"?>
<!-- Generator: Adobe Illustrator 26.5.0, SVG Export Plug-In . SVG Version: 6.00 Build 0)  -->
<svg version="1.2" baseProfile="tiny" id="Layer_1" xmlns:svg="http://www.w3.org/2000/svg"
	 xmlns="http://www.w3.org/2000/svg" xmlns:xlink="http://www.w3.org/1999/xlink" x="0px" y="0px" viewBox="0 0 512 512"
	 overflow="visible" xml:space="preserve">
<g id="Layer_x0020_1">
</g>
<g id="Layer_x0020_1_0">
	<g id="_339302168">
		<path fill-rule="evenodd" fill="#1969FF" d="M256,0c141.4,0,256,114.6,256,256S397.4,512,256,512S0,397.4,0,256S114.6,0,256,0z"/>
		<path fill="#FFFFFF" d="M240.4,79.6c8.7-4.6,22-4.6,30.8,0l89.2,46.9c5.3,2.7,8.2,6.9,8.7,11.2h0.1v235.6
			c-0.1,4.6-3.1,9.3-8.7,12.3l-89.2,46.9c-8.7,4.6-22,4.6-30.8,0l-89.2-46.9c-5.7-3-8.4-7.6-8.5-12.3c0-0.4,0-0.9,0-1.2v-233
			c0-0.2,0-0.5,0-0.8v-0.7h0.1c0.4-4.3,3.2-8.3,8.5-11.2L240.4,79.6L240.4,79.6z M355.2,269.1L355.2,269.1l-83.9,44.1
			c-8.7,4.6-22,4.6-30.8,0l-83.8-44v103.6l83.8,43.8c4.7,2.5,9.6,4.9,14.4,5.3l1,0.1c5,0,9.8-2.5,14.8-4.9l84.6-44.6V269.1H355.2z
			 M128.2,368.1L128.2,368.1c0,9,1,15,3.2,19.2c1.7,3.5,4.3,6.1,9.1,9.3l0.2,0.2c1,0.7,2.2,1.4,3.6,2.3l1.6,1l5.1,3.1l-7.3,12
			l-5.7-3.4l-1-0.6c-1.6-1-3-1.9-4.3-2.7c-13.6-9.1-18.6-19-18.7-39.6v-0.6h14.2V368.1z M248.8,205.9L248.8,205.9
			c-0.7,0.2-1.3,0.5-1.8,0.8l-89.2,46.9c-0.1,0.1-0.2,0.1-0.2,0.1l-0.1,0.1l0.1,0.1l0.2,0.1l89.2,46.9c0.5,0.3,1.2,0.5,1.8,0.8
			V205.9L248.8,205.9z M262.8,205.9L262.8,205.9v95.7c0.7-0.2,1.3-0.5,1.8-0.8l89.2-46.9c0.1-0.1,0.2-0.1,0.2-0.1l0.1-0.1l-0.1-0.1
			l-0.2-0.1l-89.2-46.9C264.1,206.3,263.5,206.1,262.8,205.9L262.8,205.9z M355.2,154.3L355.2,154.3l-80,42.1l80,42.1V154.3z
			 M156.7,154.4L156.7,154.4v83.9l79.9-41.9L156.7,154.4z M264.7,91.9L264.7,91.9c-4.6-2.4-13-2.4-17.6,0l-89.2,46.9
			c-0.1,0.1-0.2,0.1-0.2,0.1l-0.1,0.1l0.1,0.1l0.2,0.1l89.2,46.9c4.6,2.4,13,2.4,17.6,0l89.2-46.9c0.1-0.1,0.2-0.1,0.2-0.1l0.1-0.1
			l-0.1-0.1l-0.2-0.1L264.7,91.9z M368.3,97.1L368.3,97.1l5.7,3.4l1,0.6c1.6,1,3,1.9,4.3,2.7c13.6,9.1,18.6,19,18.7,39.6v0.6h-14
			c0-9-1-15-3.2-19.2c-1.7-3.5-4.3-6.1-9.1-9.3l-0.2-0.2c-1-0.7-2.2-1.4-3.6-2.3l-1.6-1l-5.1-3.1L368.3,97.1z"/>
	</g>
</g>
</svg>
