<?xml version="1.0" encoding="utf-8"?>
<!-- Generator: Adobe Illustrator 26.5.0, SVG Export Plug-In . SVG Version: 6.00 Build 0)  -->
<svg version="1.2" baseProfile="tiny" id="Layer_1" xmlns="http://www.w3.org/2000/svg" xmlns:xlink="http://www.w3.org/1999/xlink"
	 x="0px" y="0px" viewBox="0 0 512 512" overflow="visible" xml:space="preserve">
<circle fill="#0053AB" cx="256" cy="256" r="256"/>
<g>
	<g>
		<path fill="#26C4EA" d="M383.9,257c0,54.6,0.2,109.1-0.1,163.6c-0.1,26.4-25.2,42.5-47.6,30.8c-13.7-7.2-18-19.7-18-34.4
			c0.2-49.6,0.1-99.2,0.1-148.8c0-58-0.1-116.1,0.1-174c0.1-26.6,20.4-43.1,43.1-35.7c14,4.6,22.4,16.9,22.5,33.6
			C383.9,147,383.9,202,383.9,257z"/>
		<path fill="#26C4EA" d="M128.1,256.9c0-55-0.2-109.9,0.1-164.8c0.1-26.1,23.6-42.5,46-32.2c14,6.4,19.6,18.2,19.6,33.2
			c0,28.2,0,56.4,0,84.6c0,79.7,0.1,159.6,0,239.2c0,22.5-12.1,37-31.1,37.9c-20.4,0.8-34.4-13.4-34.4-35.5
			C128,365.2,128.1,311,128.1,256.9z"/>
		<path fill="#FFFFFF" d="M228.4,255.6c0-14.5-0.3-29,0.1-43.5c0.5-17.7,12.2-30,28-29.8c15.3,0.2,26.9,12.3,27.1,29.5
			c0.4,29.8,0.4,59.5-0.1,89.3c-0.3,17.2-12.1,28.6-27.9,28.4c-15.3-0.2-26.5-11.5-27-28.1C228,286.1,228.4,270.8,228.4,255.6
			L228.4,255.6z"/>
	</g>
</g>
</svg>
