<svg width="24" height="24" viewBox="0 0 24 24" fill="none" xmlns="http://www.w3.org/2000/svg">
<path d="M2.92806 16.8299L4.99806 14.7099C5.44331 14.2867 6.00497 14.0063 6.61084 13.9047C7.21671 13.8031 7.83911 13.885 8.39806 14.1399L9.29806 13.2399C8.2375 11.8229 7.75315 10.0566 7.94251 8.29678C8.13187 6.53694 8.98088 4.91417 10.3186 3.75514C11.6564 2.59612 13.3835 1.9869 15.1524 2.05013C16.9213 2.11335 18.6005 2.84433 19.8521 4.09591C21.1037 5.34749 21.8346 7.02674 21.8979 8.79561C21.9611 10.5645 21.3519 12.2916 20.1929 13.6294C19.0338 14.9671 17.4111 15.8161 15.6512 16.0055C13.8914 16.1948 12.1251 15.7105 10.7081 14.6499L9.81806 15.5399C10.103 16.0996 10.2051 16.7345 10.11 17.3553C10.0149 17.976 9.72742 18.5513 9.28806 18.9999L7.16806 21.1199C6.60555 21.6817 5.84306 21.9973 5.04806 21.9973C4.25305 21.9973 3.49056 21.6817 2.92806 21.1199C2.64232 20.8405 2.41528 20.5069 2.26028 20.1385C2.10528 19.7702 2.02543 19.3746 2.02543 18.9749C2.02543 18.5753 2.10528 18.1797 2.26028 17.8114C2.41528 17.443 2.64232 17.1093 2.92806 16.8299ZM11.4081 12.5899C12.1078 13.2879 12.9988 13.7629 13.9683 13.9548C14.9379 14.1467 15.9426 14.0469 16.8555 13.6681C17.7683 13.2893 18.5485 12.6485 19.0973 11.8265C19.6462 11.0045 19.9391 10.0383 19.9391 9.04994C19.9391 8.06157 19.6462 7.09538 19.0973 6.2734C18.5485 5.45143 17.7683 4.81056 16.8555 4.43175C15.9426 4.05294 14.9379 3.95319 13.9683 4.14509C12.9988 4.33699 12.1078 4.81194 11.4081 5.50994C10.9424 5.9744 10.573 6.52615 10.3209 7.13361C10.0689 7.74106 9.93912 8.39227 9.93912 9.04994C9.93912 9.70761 10.0689 10.3588 10.3209 10.9663C10.573 11.5737 10.9424 12.1255 11.4081 12.5899ZM4.33806 19.6599C4.43102 19.7537 4.54162 19.8281 4.66348 19.8788C4.78534 19.9296 4.91604 19.9557 5.04806 19.9557C5.18007 19.9557 5.31077 19.9296 5.43263 19.8788C5.55449 19.8281 5.66509 19.7537 5.75806 19.6599L7.87806 17.5399C7.97178 17.447 8.04618 17.3364 8.09695 17.2145C8.14772 17.0927 8.17385 16.962 8.17385 16.8299C8.17385 16.6979 8.14772 16.5672 8.09695 16.4454C8.04618 16.3235 7.97178 16.2129 7.87806 16.1199C7.78509 16.0262 7.67449 15.9518 7.55263 15.9011C7.43077 15.8503 7.30007 15.8241 7.16806 15.8241C7.03605 15.8241 6.90534 15.8503 6.78348 15.9011C6.66162 15.9518 6.55102 16.0262 6.45806 16.1199L4.33806 18.2399C4.24433 18.3329 4.16993 18.4435 4.11917 18.5654C4.0684 18.6872 4.04226 18.8179 4.04226 18.9499C4.04226 19.082 4.0684 19.2127 4.11917 19.3345C4.16993 19.4564 4.24433 19.567 4.33806 19.6599Z" fill="#858C94"/>
</svg>
