<?xml version="1.0" encoding="utf-8"?>
<!-- Generator: Adobe Illustrator 26.5.0, SVG Export Plug-In . SVG Version: 6.00 Build 0)  -->
<svg version="1.2" baseProfile="tiny" id="Layer_1" xmlns="http://www.w3.org/2000/svg" xmlns:xlink="http://www.w3.org/1999/xlink"
	 x="0px" y="0px" viewBox="0 0 30 30" overflow="visible" xml:space="preserve">
<g>
	<path fill="none" stroke="#000000" stroke-width="2" stroke-linecap="round" stroke-linejoin="round" stroke-miterlimit="10" d="
		M26,9V6c0-1.1-0.9-2-2-2h-3"/>
	<path fill="none" stroke="#000000" stroke-width="2" stroke-linecap="round" stroke-linejoin="round" stroke-miterlimit="10" d="
		M9,4H6C4.9,4,4,4.9,4,6v3"/>
	<path fill="none" stroke="#000000" stroke-width="2" stroke-linecap="round" stroke-linejoin="round" stroke-miterlimit="10" d="
		M21,26h3c1.1,0,2-0.9,2-2v-3"/>
	<path fill="none" stroke="#000000" stroke-width="2" stroke-linecap="round" stroke-linejoin="round" stroke-miterlimit="10" d="
		M4,21v3c0,1.1,0.9,2,2,2h3"/>
</g>
<path d="M15,7c-3.3,0-6.2,2-7.4,4.9c-0.1,0.3,0,0.7,0.3,0.8c0.3,0.1,0.7,0,0.8-0.3l0,0c1-2.4,3.5-4.2,6.3-4.2c1.7,0,3.2,0.6,4.4,1.6
	C19.6,10,20,10,20.2,9.7s0.2-0.7-0.1-0.9C18.8,7.7,17,7,15,7z M15,9.4c-0.6,0-1.3,0.1-1.9,0.3c-0.3,0.1-0.5,0.5-0.4,0.8
	s0.5,0.5,0.8,0.4l0,0c0.5-0.2,0.9-0.2,1.4-0.2c2.4,0,4.3,1.9,4.3,4.3c0,1.8-0.6,6-0.6,6c-0.1,0.3,0.2,0.7,0.5,0.7
	c0.3,0.1,0.7-0.2,0.7-0.5l0,0c0,0,0.6-4.1,0.6-6.2C20.6,11.9,18.1,9.4,15,9.4z M21.5,10.8c-0.3,0-0.6,0.3-0.6,0.6
	c0,0.1,0,0.2,0.1,0.3c0.5,1,0.8,2.1,0.8,3.3c0,0.7-0.1,1.3-0.3,2c-0.1,0.3,0.1,0.7,0.4,0.8c0.3,0.1,0.7-0.1,0.8-0.4l0,0
	c0.2-0.7,0.3-1.5,0.3-2.3c0-1.4-0.4-2.7-1-3.9C22,10.9,21.7,10.8,21.5,10.8z M11.1,11.3c-0.2,0-0.4,0.1-0.5,0.2
	c-0.7,0.9-1.2,2.1-1.2,3.4c0,2.9-0.5,4.8-0.5,4.8C8.8,20,9,20.4,9.3,20.5c0.3,0.1,0.7-0.1,0.8-0.4l0,0c0,0,0.5-2.1,0.5-5.1
	c0-1,0.3-1.9,0.9-2.7c0.2-0.3,0.2-0.7-0.1-0.9C11.4,11.4,11.2,11.3,11.1,11.3z M15,11.9c-1.7,0-3.1,1.4-3.1,3.1
	c0,4.3-0.6,6.6-0.6,6.6c-0.1,0.3,0.1,0.7,0.4,0.8s0.7-0.1,0.8-0.4l0,0c0,0,0.6-2.5,0.6-6.9c0-1,0.8-1.9,1.9-1.9s1.9,0.8,1.9,1.9
	c0,0.7,0,1.5-0.1,2.3c0,0.3,0.2,0.6,0.6,0.7c0.3,0,0.6-0.2,0.7-0.6l0,0c0-0.8,0.1-1.6,0.1-2.3C18.1,13.3,16.7,11.9,15,11.9z
	 M7.6,13.9c-0.3,0-0.6,0.3-0.6,0.6c0,0.2,0,0.4,0,0.5c0,0.7,0.1,1.3,0.2,2c0.1,0.3,0.4,0.5,0.7,0.5c0.3-0.1,0.5-0.4,0.5-0.7l0,0
	c-0.1-0.5-0.2-1.1-0.2-1.7c0-0.2,0-0.3,0-0.5C8.2,14.2,8,13.9,7.6,13.9L7.6,13.9z M15,14.4c-0.3,0-0.6,0.3-0.6,0.6
	c0,1.7-0.1,3.1-0.2,4.2c0,0.3,0.2,0.6,0.5,0.7s0.6-0.2,0.7-0.5l0,0c0.1-1.1,0.2-2.6,0.2-4.3C15.6,14.7,15.4,14.4,15,14.4L15,14.4z
	 M17.1,19.5c-0.3,0-0.6,0.2-0.6,0.6c-0.1,1.2-0.3,2.1-0.3,2.1c-0.1,0.3,0.2,0.7,0.5,0.7c0.3,0.1,0.7-0.2,0.7-0.5l0,0
	c0,0,0.1-0.9,0.3-2.1C17.8,19.8,17.6,19.5,17.1,19.5C17.2,19.5,17.2,19.5,17.1,19.5z M14.4,21.1c-0.3,0-0.5,0.2-0.6,0.5
	c-0.1,0.4-0.2,0.6-0.2,0.6c-0.1,0.3,0.1,0.7,0.4,0.8c0.3,0.1,0.7-0.1,0.8-0.4l0,0c0,0,0.1-0.3,0.2-0.7
	C15.1,21.6,14.9,21.2,14.4,21.1C14.5,21.1,14.4,21.1,14.4,21.1z"/>
</svg>
